<svg xmlns="http://www.w3.org/2000/svg" viewBox="0 0 500 500" role="img" aria-label="Mnemosyne avatar — mood rest, health 28%"><defs><radialGradient id="auraGrad" cx="50%" cy="50%" r="60%"><stop offset="0%" stop-color="#638c9d" stop-opacity="0.55"/><stop offset="55%" stop-color="#638c9d" stop-opacity="0.18"/><stop offset="100%" stop-color="#638c9d" stop-opacity="0"/></radialGradient><radialGradient id="coreGrad" cx="50%" cy="45%" r="60%"><stop offset="0%" stop-color="#7b9eb0"/><stop offset="55%" stop-color="#638c9d"/><stop offset="100%" stop-color="#0a0d1a"/></radialGradient></defs><rect x="0" y="0" width="500" height="500" fill="#0a0d1a"/><circle cx="250.0" cy="260.0" r="134.7" fill="url(#auraGrad)" opacity="0.85"><animate attributeName="opacity" values="0.35;0.95;0.35" dur="6.00s" repeatCount="indefinite"/></circle><circle cx="250.0" cy="260.0" r="56.5" fill="none" stroke="#d9bdef" stroke-opacity="0.54" stroke-width="1.2"/><circle cx="250.0" cy="260.0" r="66.9" fill="none" stroke="#d9bdef" stroke-opacity="0.48" stroke-width="1.2"/><circle cx="250.0" cy="260.0" r="77.3" fill="none" stroke="#d9bdef" stroke-opacity="0.42" stroke-width="1.2"/><circle cx="250.0" cy="260.0" r="87.8" fill="none" stroke="#d9bdef" stroke-opacity="0.36" stroke-width="1.2"/><circle cx="250.0" cy="260.0" r="98.2" fill="none" stroke="#d9bdef" stroke-opacity="0.30" stroke-width="1.2"/><circle cx="250.0" cy="260.0" r="108.6" fill="none" stroke="#d9bdef" stroke-opacity="0.24" stroke-width="1.2"/><circle cx="250.0" cy="260.0" r="59.5" fill="url(#coreGrad)" stroke="#7b9eb0" stroke-opacity="0.55" stroke-width="1.5"/><ellipse cx="250.0" cy="256.0" rx="18" ry="4" fill="#0a0d1a" stroke="#7b9eb0" stroke-width="1"/><circle cx="250.0" cy="256.0" r="5" fill="#d9bdef" opacity="0.95"/><g><circle cx="364.9" cy="260.0" r="3" fill="#d9bdef" opacity="0.78"/><circle cx="346.7" cy="322.1" r="3" fill="#d9bdef" opacity="0.78"/><circle cx="297.7" cy="364.5" r="3" fill="#d9bdef" opacity="0.78"/><circle cx="233.6" cy="373.7" r="3" fill="#d9bdef" opacity="0.78"/><circle cx="174.8" cy="346.8" r="3" fill="#d9bdef" opacity="0.78"/><circle cx="139.8" cy="292.4" r="3" fill="#d9bdef" opacity="0.78"/><circle cx="139.8" cy="227.6" r="3" fill="#d9bdef" opacity="0.78"/><circle cx="174.8" cy="173.2" r="3" fill="#d9bdef" opacity="0.78"/><circle cx="233.6" cy="146.3" r="3" fill="#d9bdef" opacity="0.78"/><circle cx="297.7" cy="155.5" r="3" fill="#d9bdef" opacity="0.78"/><circle cx="346.7" cy="197.9" r="3" fill="#d9bdef" opacity="0.78"/><animateTransform attributeName="transform" type="rotate" from="0 250.0 260.0" to="360 250.0 260.0" dur="19.7s" repeatCount="indefinite"/></g><line x1="313.5" y1="260.0" x2="316.6" y2="270.7" stroke="#f25c6f" stroke-opacity="0.45" stroke-width="1.6" stroke-linecap="round"/><line x1="250.0" y1="323.5" x2="239.3" y2="326.6" stroke="#f25c6f" stroke-opacity="0.45" stroke-width="1.6" stroke-linecap="round"/><line x1="186.5" y1="260.0" x2="183.4" y2="249.3" stroke="#f25c6f" stroke-opacity="0.45" stroke-width="1.6" stroke-linecap="round"/><line x1="250.0" y1="196.5" x2="260.7" y2="193.4" stroke="#f25c6f" stroke-opacity="0.45" stroke-width="1.6" stroke-linecap="round"/><line x1="230.0" y1="315.5" x2="230.0" y2="364.1" stroke="#d9bdef" stroke-opacity="0.55" stroke-width="2" stroke-linecap="round"/><line x1="250.0" y1="315.5" x2="250.0" y2="373.1" stroke="#638c9d" stroke-opacity="0.55" stroke-width="2" stroke-linecap="round"/><line x1="270.0" y1="315.5" x2="270.0" y2="375.1" stroke="#7b9eb0" stroke-opacity="0.55" stroke-width="2" stroke-linecap="round"/></svg>