<svg xmlns="http://www.w3.org/2000/svg" viewBox="0 0 500 500" role="img" aria-label="Mnemosyne avatar — mood rest, health 60%"><defs><radialGradient id="auraGrad" cx="50%" cy="50%" r="60%"><stop offset="0%" stop-color="#50aabd" stop-opacity="0.55"/><stop offset="55%" stop-color="#50aabd" stop-opacity="0.18"/><stop offset="100%" stop-color="#50aabd" stop-opacity="0"/></radialGradient><radialGradient id="coreGrad" cx="50%" cy="45%" r="60%"><stop offset="0%" stop-color="#6bb7cb"/><stop offset="55%" stop-color="#50aabd"/><stop offset="100%" stop-color="#0a0d1a"/></radialGradient></defs><rect x="0" y="0" width="500" height="500" fill="#0a0d1a"/><circle cx="250.0" cy="260.0" r="124.0" fill="url(#auraGrad)" opacity="0.85"><animate attributeName="opacity" values="0.35;0.95;0.35" dur="6.00s" repeatCount="indefinite"/></circle><circle cx="250.0" cy="260.0" r="63.2" fill="url(#coreGrad)" stroke="#6bb7cb" stroke-opacity="0.55" stroke-width="1.5"/><ellipse cx="250.0" cy="256.0" rx="18" ry="4" fill="#0a0d1a" stroke="#6bb7cb" stroke-width="1"/><circle cx="250.0" cy="256.0" r="5" fill="#d9bff2" opacity="0.95"/><g><circle cx="358.0" cy="260.0" r="3" fill="#d9bff2" opacity="0.78"/><circle cx="340.9" cy="318.4" r="3" fill="#d9bff2" opacity="0.78"/><circle cx="294.9" cy="358.2" r="3" fill="#d9bff2" opacity="0.78"/><circle cx="234.6" cy="366.9" r="3" fill="#d9bff2" opacity="0.78"/><circle cx="179.3" cy="341.6" r="3" fill="#d9bff2" opacity="0.78"/><circle cx="146.4" cy="290.4" r="3" fill="#d9bff2" opacity="0.78"/><circle cx="146.4" cy="229.6" r="3" fill="#d9bff2" opacity="0.78"/><circle cx="179.3" cy="178.4" r="3" fill="#d9bff2" opacity="0.78"/><circle cx="234.6" cy="153.1" r="3" fill="#d9bff2" opacity="0.78"/><circle cx="294.9" cy="161.8" r="3" fill="#d9bff2" opacity="0.78"/><circle cx="340.9" cy="201.6" r="3" fill="#d9bff2" opacity="0.78"/><animateTransform attributeName="transform" type="rotate" from="0 250.0 260.0" to="360 250.0 260.0" dur="20.0s" repeatCount="indefinite"/></g><line x1="230.0" y1="319.2" x2="230.0" y2="339.2" stroke="#d9bff2" stroke-opacity="0.55" stroke-width="2" stroke-linecap="round"/><line x1="250.0" y1="319.2" x2="250.0" y2="339.2" stroke="#50aabd" stroke-opacity="0.55" stroke-width="2" stroke-linecap="round"/><line x1="270.0" y1="319.2" x2="270.0" y2="339.2" stroke="#6bb7cb" stroke-opacity="0.55" stroke-width="2" stroke-linecap="round"/></svg>