<svg xmlns="http://www.w3.org/2000/svg" viewBox="0 0 500 500" role="img" aria-label="Mnemosyne avatar — mood rest, health 21%"><defs><radialGradient id="auraGrad" cx="50%" cy="50%" r="60%"><stop offset="0%" stop-color="#678796" stop-opacity="0.55"/><stop offset="55%" stop-color="#678796" stop-opacity="0.18"/><stop offset="100%" stop-color="#678796" stop-opacity="0"/></radialGradient><radialGradient id="coreGrad" cx="50%" cy="45%" r="60%"><stop offset="0%" stop-color="#7d99ab"/><stop offset="55%" stop-color="#678796"/><stop offset="100%" stop-color="#0a0d1a"/></radialGradient></defs><rect x="0" y="0" width="500" height="500" fill="#0a0d1a"/><path d="M0,500 L0,500.0 Q150.0,488.0 250.0,494.0 T500,500.0 L500,500 Z" fill="#7d99ab" fill-opacity="0.10"/><path d="M0,500 L0,430.0 Q150.0,422.0 250.0,426.0 T500,430.0 L500,500 Z" fill="#678796" fill-opacity="0.12"/><path d="M0,500 L0,493.2 Q150.0,487.2 250.0,490.2 T500,493.2 L500,500 Z" fill="#d9bef1" fill-opacity="0.15"/><circle cx="250.0" cy="260.0" r="192.3" fill="url(#auraGrad)" opacity="0.85"><animate attributeName="opacity" values="0.35;0.95;0.35" dur="6.00s" repeatCount="indefinite"/></circle><circle cx="250.0" cy="260.0" r="241.9" fill="none" stroke="#d9bef1" stroke-opacity="0.135" stroke-width="0.8" stroke-dasharray="4 6"/><line x1="291.9" y1="271.2" x2="312.3" y2="276.7" stroke="#7d99ab" stroke-opacity="0.55" stroke-width="1.1" stroke-linecap="round"/><line x1="280.7" y1="290.7" x2="295.6" y2="305.6" stroke="#7d99ab" stroke-opacity="0.55" stroke-width="1.1" stroke-linecap="round"/><line x1="261.2" y1="301.9" x2="266.7" y2="322.3" stroke="#7d99ab" stroke-opacity="0.55" stroke-width="1.1" stroke-linecap="round"/><line x1="238.8" y1="301.9" x2="233.3" y2="322.3" stroke="#7d99ab" stroke-opacity="0.55" stroke-width="1.1" stroke-linecap="round"/><line x1="219.3" y1="290.7" x2="204.4" y2="305.6" stroke="#7d99ab" stroke-opacity="0.55" stroke-width="1.1" stroke-linecap="round"/><line x1="208.1" y1="271.2" x2="187.7" y2="276.7" stroke="#7d99ab" stroke-opacity="0.55" stroke-width="1.1" stroke-linecap="round"/><line x1="208.1" y1="248.8" x2="187.7" y2="243.3" stroke="#7d99ab" stroke-opacity="0.55" stroke-width="1.1" stroke-linecap="round"/><line x1="219.3" y1="229.3" x2="204.4" y2="214.4" stroke="#7d99ab" stroke-opacity="0.55" stroke-width="1.1" stroke-linecap="round"/><line x1="238.8" y1="218.1" x2="233.3" y2="197.7" stroke="#7d99ab" stroke-opacity="0.55" stroke-width="1.1" stroke-linecap="round"/><line x1="261.2" y1="218.1" x2="266.7" y2="197.7" stroke="#7d99ab" stroke-opacity="0.55" stroke-width="1.1" stroke-linecap="round"/><circle cx="250.0" cy="260.0" r="80.6" fill="none" stroke="#d9bef1" stroke-opacity="0.48" stroke-width="1.2"/><circle cx="250.0" cy="260.0" r="95.5" fill="none" stroke="#d9bef1" stroke-opacity="0.42" stroke-width="1.2"/><circle cx="250.0" cy="260.0" r="110.4" fill="none" stroke="#d9bef1" stroke-opacity="0.36" stroke-width="1.2"/><circle cx="250.0" cy="260.0" r="125.3" fill="none" stroke="#d9bef1" stroke-opacity="0.30" stroke-width="1.2"/><circle cx="250.0" cy="260.0" r="140.2" fill="none" stroke="#d9bef1" stroke-opacity="0.24" stroke-width="1.2"/><circle cx="250.0" cy="260.0" r="58.6" fill="url(#coreGrad)" stroke="#7d99ab" stroke-opacity="0.55" stroke-width="1.5"/><ellipse cx="250.0" cy="256.0" rx="18" ry="4" fill="#0a0d1a" stroke="#7d99ab" stroke-width="1"/><circle cx="250.0" cy="256.0" r="5" fill="#d9bef1" opacity="0.95"/><g><circle cx="402.1" cy="260.0" r="3" fill="#d9bef1" opacity="0.78"/><circle cx="377.9" cy="342.2" r="3" fill="#d9bef1" opacity="0.78"/><circle cx="313.2" cy="398.3" r="3" fill="#d9bef1" opacity="0.78"/><circle cx="228.4" cy="410.5" r="3" fill="#d9bef1" opacity="0.78"/><circle cx="150.4" cy="374.9" r="3" fill="#d9bef1" opacity="0.78"/><circle cx="104.1" cy="302.8" r="3" fill="#d9bef1" opacity="0.78"/><circle cx="104.1" cy="217.2" r="3" fill="#d9bef1" opacity="0.78"/><circle cx="150.4" cy="145.1" r="3" fill="#d9bef1" opacity="0.78"/><circle cx="228.4" cy="109.5" r="3" fill="#d9bef1" opacity="0.78"/><circle cx="313.2" cy="121.7" r="3" fill="#d9bef1" opacity="0.78"/><circle cx="377.9" cy="177.8" r="3" fill="#d9bef1" opacity="0.78"/><animateTransform attributeName="transform" type="rotate" from="0 250.0 260.0" to="360 250.0 260.0" dur="19.9s" repeatCount="indefinite"/></g><line x1="312.6" y1="260.0" x2="315.8" y2="270.6" stroke="#f25c6f" stroke-opacity="0.45" stroke-width="1.6" stroke-linecap="round"/><line x1="187.4" y1="260.0" x2="184.2" y2="249.4" stroke="#f25c6f" stroke-opacity="0.45" stroke-width="1.6" stroke-linecap="round"/><line x1="230.0" y1="314.6" x2="230.0" y2="379.4" stroke="#d9bef1" stroke-opacity="0.55" stroke-width="2" stroke-linecap="round"/><line x1="250.0" y1="314.6" x2="250.0" y2="411.7" stroke="#678796" stroke-opacity="0.55" stroke-width="2" stroke-linecap="round"/><line x1="270.0" y1="314.6" x2="270.0" y2="334.6" stroke="#7d99ab" stroke-opacity="0.55" stroke-width="2" stroke-linecap="round"/></svg>