<svg xmlns="http://www.w3.org/2000/svg" viewBox="0 0 1400 880"><rect width="1400" height="880" fill="#0a0d1a"/><rect x="0" y="0" width="1400" height="48" fill="#11162a" stroke="#181f3a" stroke-width="1"/><circle cx="22" cy="24" r="6" fill="#638c9d"/><text x="36" y="29" font-family="-apple-system,Segoe UI,sans-serif" font-size="15" font-weight="600" fill="#d6dbf2">Mnemosyne</text><text x="120" y="29" font-family="-apple-system,sans-serif" font-size="11" fill="#6f7baa">v0.3.0</text><rect x="860" y="13" rx="11" ry="11" width="90" height="22" fill="#1a2245" stroke="#1a2245" stroke-width="1"/><text x="870" y="28" font-size="11" fill="#d6dbf2" font-family="-apple-system,sans-serif">mood: rest</text><rect x="960" y="13" rx="11" ry="11" width="100" height="22" fill="#1a2245" stroke="#1a2245" stroke-width="1"/><text x="970" y="28" font-size="11" fill="#d6dbf2" font-family="-apple-system,sans-serif">memory: 45</text><rect x="1070" y="13" rx="11" ry="11" width="90" height="22" fill="#1a2245" stroke="#1a2245" stroke-width="1"/><text x="1080" y="28" font-size="11" fill="#d6dbf2" font-family="-apple-system,sans-serif">skills: 11</text><rect x="1165" y="13" rx="11" ry="11" width="100" height="22" fill="#1a2245" stroke="#1a2245" stroke-width="1"/><text x="1175" y="28" font-size="11" fill="#d6dbf2" font-family="-apple-system,sans-serif">goals: 3 open</text><rect x="1270" y="13" rx="11" ry="11" width="120" height="22" fill="#1a2245" stroke="#f5b042" stroke-width="1"/><text x="1280" y="28" font-size="11" fill="#f5b042" font-family="-apple-system,sans-serif">identity: 45%</text><rect x="20" y="64" rx="10" ry="10" width="480" height="796" fill="#11162a" stroke="#181f3a"/><text x="38" y="88" font-size="11" font-weight="600" fill="#6f7baa" font-family="-apple-system,sans-serif" letter-spacing="1">AVATAR</text><text x="115" y="88" font-size="11" fill="#6f7baa" font-family="-apple-system,sans-serif">rest</text><g transform="translate(50, 94) scale(0.8)"><defs><radialGradient id="auraGrad" cx="50%" cy="50%" r="60%"><stop offset="0%" stop-color="#638c9d" stop-opacity="0.55"/><stop offset="55%" stop-color="#638c9d" stop-opacity="0.18"/><stop offset="100%" stop-color="#638c9d" stop-opacity="0"/></radialGradient><radialGradient id="coreGrad" cx="50%" cy="45%" r="60%"><stop offset="0%" stop-color="#7b9eb0"/><stop offset="55%" stop-color="#638c9d"/><stop offset="100%" stop-color="#0a0d1a"/></radialGradient></defs><rect x="0" y="0" width="500" height="500" fill="#0a0d1a"/><circle cx="250.0" cy="260.0" r="134.7" fill="url(#auraGrad)" opacity="0.85"><animate attributeName="opacity" values="0.35;0.95;0.35" dur="6.00s" repeatCount="indefinite"/></circle><circle cx="250.0" cy="260.0" r="56.5" fill="none" stroke="#d9bdef" stroke-opacity="0.54" stroke-width="1.2"/><circle cx="250.0" cy="260.0" r="66.9" fill="none" stroke="#d9bdef" stroke-opacity="0.48" stroke-width="1.2"/><circle cx="250.0" cy="260.0" r="77.3" fill="none" stroke="#d9bdef" stroke-opacity="0.42" stroke-width="1.2"/><circle cx="250.0" cy="260.0" r="87.8" fill="none" stroke="#d9bdef" stroke-opacity="0.36" stroke-width="1.2"/><circle cx="250.0" cy="260.0" r="98.2" fill="none" stroke="#d9bdef" stroke-opacity="0.30" stroke-width="1.2"/><circle cx="250.0" cy="260.0" r="108.6" fill="none" stroke="#d9bdef" stroke-opacity="0.24" stroke-width="1.2"/><circle cx="250.0" cy="260.0" r="59.5" fill="url(#coreGrad)" stroke="#7b9eb0" stroke-opacity="0.55" stroke-width="1.5"/><ellipse cx="250.0" cy="256.0" rx="18" ry="4" fill="#0a0d1a" stroke="#7b9eb0" stroke-width="1"/><circle cx="250.0" cy="256.0" r="5" fill="#d9bdef" opacity="0.95"/><g><circle cx="364.9" cy="260.0" r="3" fill="#d9bdef" opacity="0.78"/><circle cx="346.7" cy="322.1" r="3" fill="#d9bdef" opacity="0.78"/><circle cx="297.7" cy="364.5" r="3" fill="#d9bdef" opacity="0.78"/><circle cx="233.6" cy="373.7" r="3" fill="#d9bdef" opacity="0.78"/><circle cx="174.8" cy="346.8" r="3" fill="#d9bdef" opacity="0.78"/><circle cx="139.8" cy="292.4" r="3" fill="#d9bdef" opacity="0.78"/><circle cx="139.8" cy="227.6" r="3" fill="#d9bdef" opacity="0.78"/><circle cx="174.8" cy="173.2" r="3" fill="#d9bdef" opacity="0.78"/><circle cx="233.6" cy="146.3" r="3" fill="#d9bdef" opacity="0.78"/><circle cx="297.7" cy="155.5" r="3" fill="#d9bdef" opacity="0.78"/><circle cx="346.7" cy="197.9" r="3" fill="#d9bdef" opacity="0.78"/><animateTransform attributeName="transform" type="rotate" from="0 250.0 260.0" to="360 250.0 260.0" dur="19.7s" repeatCount="indefinite"/></g><line x1="313.5" y1="260.0" x2="316.6" y2="270.7" stroke="#f25c6f" stroke-opacity="0.45" stroke-width="1.6" stroke-linecap="round"/><line x1="250.0" y1="323.5" x2="239.3" y2="326.6" stroke="#f25c6f" stroke-opacity="0.45" stroke-width="1.6" stroke-linecap="round"/><line x1="186.5" y1="260.0" x2="183.4" y2="249.3" stroke="#f25c6f" stroke-opacity="0.45" stroke-width="1.6" stroke-linecap="round"/><line x1="250.0" y1="196.5" x2="260.7" y2="193.4" stroke="#f25c6f" stroke-opacity="0.45" stroke-width="1.6" stroke-linecap="round"/><line x1="230.0" y1="315.5" x2="230.0" y2="364.1" stroke="#d9bdef" stroke-opacity="0.55" stroke-width="2" stroke-linecap="round"/><line x1="250.0" y1="315.5" x2="250.0" y2="373.1" stroke="#638c9d" stroke-opacity="0.55" stroke-width="2" stroke-linecap="round"/><line x1="270.0" y1="315.5" x2="270.0" y2="375.1" stroke="#7b9eb0" stroke-opacity="0.55" stroke-width="2" stroke-linecap="round"/></g><text x="38" y="660" font-size="12" fill="#6f7baa" font-family="-apple-system,sans-serif">mood</text><text x="238" y="660" font-size="12" fill="#d6dbf2" text-anchor="end" font-family="-apple-system,sans-serif">rest</text><text x="258" y="660" font-size="12" fill="#6f7baa" font-family="-apple-system,sans-serif">age (days)</text><text x="458" y="660" font-size="12" fill="#d6dbf2" text-anchor="end" font-family="-apple-system,sans-serif">0.0</text><text x="38" y="688" font-size="12" fill="#6f7baa" font-family="-apple-system,sans-serif">memories</text><text x="238" y="688" font-size="12" fill="#d6dbf2" text-anchor="end" font-family="-apple-system,sans-serif">45</text><text x="258" y="688" font-size="12" fill="#6f7baa" font-family="-apple-system,sans-serif">skills</text><text x="458" y="688" font-size="12" fill="#d6dbf2" text-anchor="end" font-family="-apple-system,sans-serif">11 (+0 learned)</text><text x="38" y="716" font-size="12" fill="#6f7baa" font-family="-apple-system,sans-serif">goals (open)</text><text x="238" y="716" font-size="12" fill="#d6dbf2" text-anchor="end" font-family="-apple-system,sans-serif">3</text><text x="258" y="716" font-size="12" fill="#6f7baa" font-family="-apple-system,sans-serif">goals resolved</text><text x="458" y="716" font-size="12" fill="#d6dbf2" text-anchor="end" font-family="-apple-system,sans-serif">1</text><text x="38" y="744" font-size="12" fill="#6f7baa" font-family="-apple-system,sans-serif">dreams</text><text x="238" y="744" font-size="12" fill="#d6dbf2" text-anchor="end" font-family="-apple-system,sans-serif">4</text><text x="258" y="744" font-size="12" fill="#6f7baa" font-family="-apple-system,sans-serif">inner dialogues</text><text x="458" y="744" font-size="12" fill="#d6dbf2" text-anchor="end" font-family="-apple-system,sans-serif">6</text><text x="38" y="772" font-size="12" fill="#6f7baa" font-family="-apple-system,sans-serif">identity</text><text x="238" y="772" font-size="12" fill="#d6dbf2" text-anchor="end" font-family="-apple-system,sans-serif">46.0%</text><text x="258" y="772" font-size="12" fill="#6f7baa" font-family="-apple-system,sans-serif">activity</text><text x="458" y="772" font-size="12" fill="#d6dbf2" text-anchor="end" font-family="-apple-system,sans-serif">2%</text><text x="38" y="800" font-size="12" fill="#6f7baa" font-family="-apple-system,sans-serif">health</text><text x="238" y="800" font-size="12" fill="#d6dbf2" text-anchor="end" font-family="-apple-system,sans-serif">29%</text><text x="258" y="800" font-size="12" fill="#6f7baa" font-family="-apple-system,sans-serif">pulse</text><text x="458" y="800" font-size="12" fill="#d6dbf2" text-anchor="end" font-family="-apple-system,sans-serif">7 bpm</text><rect x="520" y="64" rx="10" ry="10" width="580" height="540" fill="#11162a" stroke="#181f3a"/><text x="538" y="88" font-size="11" font-weight="600" fill="#6f7baa" letter-spacing="1" font-family="-apple-system,sans-serif">CHAT</text><rect x="720" y="114" rx="14" ry="14" width="360" height="46" fill="#181f3a" stroke="#3a4475" stroke-width="0.8"/><text x="732" y="136" font-size="13" fill="#d6dbf2" font-family="-apple-system,sans-serif">Hello. I'm Mnemosyne. The avatar reflects my state in real time.</text><rect x="720" y="172" rx="14" ry="14" width="360" height="46" fill="#1e3243" stroke="#50aabd" stroke-width="0.8"/><text x="732" y="194" font-size="13" fill="#d6dbf2" font-family="-apple-system,sans-serif">Plan a database migration for production.</text><rect x="538" y="230" rx="14" ry="14" width="540" height="46" fill="#181f3a" stroke="#3a4475" stroke-width="0.8"/><text x="550" y="252" font-size="13" fill="#d6dbf2" font-family="-apple-system,sans-serif">Plan: (1) take an off-host backup, (2) apply the migration inside a transac</text><text x="550" y="268" font-size="13" fill="#d6dbf2" font-family="-apple-system,sans-serif">tion, (3) validate row counts.</text><rect x="720" y="296" rx="14" ry="14" width="360" height="46" fill="#1e3243" stroke="#50aabd" stroke-width="0.8"/><text x="732" y="318" font-size="13" fill="#d6dbf2" font-family="-apple-system,sans-serif">What's the difference between L1, L2, and L3 memory?</text><rect x="538" y="354" rx="14" ry="14" width="540" height="46" fill="#181f3a" stroke="#3a4475" stroke-width="0.8"/><text x="550" y="376" font-size="13" fill="#d6dbf2" font-family="-apple-system,sans-serif">L1 hot is fast retrieval for frequent items, L2 warm holds recent context, </text><text x="550" y="392" font-size="13" fill="#d6dbf2" font-family="-apple-system,sans-serif">L3 cold is long-term and consolidated by dreams.</text><rect x="538" y="538" rx="8" ry="8" width="544" height="44" fill="#0a0d1a" stroke="#181f3a"/><text x="550" y="564" font-size="13" fill="#6f7baa" font-family="-apple-system,sans-serif">Ask anything (Shift+Enter for newline)…</text><rect x="1120" y="64" rx="10" ry="10" width="260" height="380" fill="#11162a" stroke="#181f3a"/><text x="1138" y="88" font-size="11" font-weight="600" fill="#6f7baa" letter-spacing="1" font-family="-apple-system,sans-serif">EVENTS</text><text x="1210" y="88" font-size="11" fill="#4ce0a8" font-family="-apple-system,sans-serif">live</text><text x="1138" y="114" font-size="11" fill="#6f7baa" font-family="ui-monospace,monospace">05:14:21</text><text x="1202" y="114" font-size="11" fill="#d9bdef" font-family="ui-monospace,monospace">turn_end</text><text x="1320" y="114" font-size="11" fill="#d6dbf2" font-family="ui-monospace,monospace">ok</text><text x="1138" y="146" font-size="11" fill="#6f7baa" font-family="ui-monospace,monospace">05:14:18</text><text x="1202" y="146" font-size="11" fill="#d9bdef" font-family="ui-monospace,monospace">tool_call</text><text x="1320" y="146" font-size="11" fill="#d6dbf2" font-family="ui-monospace,monospace">fs_read</text><text x="1138" y="178" font-size="11" fill="#6f7baa" font-family="ui-monospace,monospace">05:14:18</text><text x="1202" y="178" font-size="11" fill="#d9bdef" font-family="ui-monospace,monospace">inner_dialogue_done</text><text x="1320" y="178" font-size="11" fill="#d6dbf2" font-family="ui-monospace,monospace">3 calls</text><text x="1138" y="210" font-size="11" fill="#6f7baa" font-family="ui-monospace,monospace">05:14:11</text><text x="1202" y="210" font-size="11" fill="#d9bdef" font-family="ui-monospace,monospace">persona_call</text><text x="1320" y="210" font-size="11" fill="#d6dbf2" font-family="ui-monospace,monospace">doer</text><text x="1138" y="242" font-size="11" fill="#6f7baa" font-family="ui-monospace,monospace">05:14:10</text><text x="1202" y="242" font-size="11" fill="#d9bdef" font-family="ui-monospace,monospace">persona_call</text><text x="1320" y="242" font-size="11" fill="#d6dbf2" font-family="ui-monospace,monospace">critic</text><text x="1138" y="274" font-size="11" fill="#6f7baa" font-family="ui-monospace,monospace">05:14:09</text><text x="1202" y="274" font-size="11" fill="#d9bdef" font-family="ui-monospace,monospace">persona_call</text><text x="1320" y="274" font-size="11" fill="#d6dbf2" font-family="ui-monospace,monospace">planner</text><text x="1138" y="306" font-size="11" fill="#6f7baa" font-family="ui-monospace,monospace">05:14:02</text><text x="1202" y="306" font-size="11" fill="#d9bdef" font-family="ui-monospace,monospace">memory_write</text><text x="1320" y="306" font-size="11" fill="#d6dbf2" font-family="ui-monospace,monospace">turn</text><text x="1138" y="338" font-size="11" fill="#6f7baa" font-family="ui-monospace,monospace">05:13:55</text><text x="1202" y="338" font-size="11" fill="#d9bdef" font-family="ui-monospace,monospace">dream_end</text><text x="1320" y="338" font-size="11" fill="#d6dbf2" font-family="ui-monospace,monospace">2 clusters</text><text x="1138" y="370" font-size="11" fill="#6f7baa" font-family="ui-monospace,monospace">05:13:54</text><text x="1202" y="370" font-size="11" fill="#d9bdef" font-family="ui-monospace,monospace">memory_promote</text><text x="1320" y="370" font-size="11" fill="#d6dbf2" font-family="ui-monospace,monospace">L2→L1</text><rect x="520" y="616" rx="10" ry="10" width="280" height="244" fill="#11162a" stroke="#181f3a"/><text x="538" y="640" font-size="11" font-weight="600" fill="#6f7baa" letter-spacing="1" font-family="-apple-system,sans-serif">MEMORY TIERS</text><text x="538" y="684" font-size="12" fill="#d6dbf2" font-family="-apple-system,sans-serif">L1</text><rect x="570" y="676" width="180" height="10" rx="5" fill="#181f3a"/><rect x="570" y="676" width="72.0" height="10" rx="5" fill="#d9bdef" opacity="0.85"/><text x="770" y="685" font-size="11" fill="#6f7baa" text-anchor="end" font-family="-apple-system,sans-serif">8</text><text x="538" y="724" font-size="12" fill="#d6dbf2" font-family="-apple-system,sans-serif">L2</text><rect x="570" y="716" width="180" height="10" rx="5" fill="#181f3a"/><rect x="570" y="716" width="153.0" height="10" rx="5" fill="#638c9d" opacity="0.85"/><text x="770" y="725" font-size="11" fill="#6f7baa" text-anchor="end" font-family="-apple-system,sans-serif">17</text><text x="538" y="764" font-size="12" fill="#d6dbf2" font-family="-apple-system,sans-serif">L3</text><rect x="570" y="756" width="180" height="10" rx="5" fill="#181f3a"/><rect x="570" y="756" width="180.0" height="10" rx="5" fill="#7b9eb0" opacity="0.85"/><text x="770" y="765" font-size="11" fill="#6f7baa" text-anchor="end" font-family="-apple-system,sans-serif">20</text><rect x="820" y="616" rx="10" ry="10" width="560" height="244" fill="#11162a" stroke="#181f3a"/><text x="838" y="640" font-size="11" font-weight="600" fill="#6f7baa" letter-spacing="1" font-family="-apple-system,sans-serif">GOALS</text><rect x="838" y="660" width="32" height="20" rx="5" fill="#1a2245"/><text x="854" y="674" font-size="11" fill="#f25c6f" text-anchor="middle" font-family="-apple-system,sans-serif">P1</text><text x="882" y="674" font-size="13" fill="#d6dbf2" font-family="-apple-system,sans-serif">ship v0.3</text><rect x="838" y="696" width="32" height="20" rx="5" fill="#1a2245"/><text x="854" y="710" font-size="11" fill="#f5b042" text-anchor="middle" font-family="-apple-system,sans-serif">P2</text><text x="882" y="710" font-size="13" fill="#d6dbf2" font-family="-apple-system,sans-serif">write docs/UI.md</text><rect x="838" y="732" width="32" height="20" rx="5" fill="#1a2245"/><text x="854" y="746" font-size="11" fill="#4ce0a8" text-anchor="middle" font-family="-apple-system,sans-serif">P3</text><text x="882" y="746" font-size="13" fill="#d6dbf2" font-family="-apple-system,sans-serif">add Telegram channel</text></svg>